<svg version="1.1" xmlns="http://www.w3.org/2000/svg" xmlns:xlink="http://www.w3.org/1999/xlink" width="200" height="200" viewBox="668,300.5,200,200"><defs><clipPath id="clip-1"><rect x="759.15742" y="-315.64489" transform="rotate(45)" width="122.88" height="122.88" id="clip-1" fill="none" fill-rule="nonzero"/></clipPath></defs><g id="document" fill-opacity="0" fill="#ffffff" fill-rule="nonzero" stroke="#000000" stroke-width="0" stroke-linecap="butt" stroke-linejoin="miter" stroke-miterlimit="10" stroke-dasharray="" stroke-dashoffset="0" font-family="none" font-weight="none" font-size="none" text-anchor="none" style="mix-blend-mode: normal"><rect x="668" y="300.5" width="200" height="200" id="Shape 1 1" vector-effect="non-scaling-stroke"/></g><g fill="none" fill-rule="none" stroke="none" stroke-width="1" stroke-linecap="butt" stroke-linejoin="miter" stroke-miterlimit="10" stroke-dasharray="" stroke-dashoffset="0" font-family="none" font-weight="none" font-size="none" text-anchor="none" style="mix-blend-mode: normal"><g><g id="stage"><g id="layer1 1"><g clip-path="url(#clip-1)" id="Group 1"><g id="Group 1" fill="#c49900" fill-rule="evenodd"><path d="M696.98264,400.14645c2.85671,-2.84257 7.26199,-4.0093 13.01784,-4.49013l-5.60736,-24.89723c-0.54447,-1.37886 0.06364,-1.94454 1.31522,-2.07889l5.98919,0.47376c0.94752,0.22627 1.72534,0.69296 2.21324,1.54856l15.6412,22.00516l32.66833,-1.30108l-11.84404,-61.38394c-0.38184,-1.47078 0.15556,-2.16375 1.82434,-1.92333l9.49644,1.06773l34.31589,61.14352l29.17523,-0.97581c8.82469,0.6364 15.25229,3.40118 17.91101,7.79939c1.46371,2.42538 1.56978,3.6911 0.34648,6.11647c-2.41123,4.74469 -9.02975,7.74282 -18.2575,8.41457l-29.17523,-0.97581l-34.31589,61.14352l-9.49644,1.06773c-1.6617,0.23335 -2.1991,-0.45962 -1.82434,-1.92333l11.8299,-61.38394l-32.66126,-1.30815l-15.6412,22.00516c-0.48083,0.84853 -1.25158,1.32229 -2.21324,1.54856l-5.98919,0.47376c-1.24451,-0.12728 -1.85969,-0.70004 -1.31522,-2.07889l5.60736,-24.89723c-5.77706,-0.4879 -10.18234,-1.65463 -13.04612,-4.51841c-0.25456,-0.2687 -0.2192,-0.41719 0.03536,-0.67175z" id="Path 1"/></g></g></g></g></g></g></svg>