<svg version="1.1" xmlns="http://www.w3.org/2000/svg" xmlns:xlink="http://www.w3.org/1999/xlink" width="723.80157" height="723.80157" viewBox="394.09921,40.59921,723.80157,723.80157"><defs><clipPath id="clip-1"><rect x="563.1832" y="-505.76725" transform="rotate(45)" width="512" height="511.61" id="clip-1" fill="none" fill-rule="nonzero"/></clipPath></defs><g id="document" fill-opacity="0" fill="#ffffff" fill-rule="nonzero" stroke="#000000" stroke-width="0" stroke-linecap="butt" stroke-linejoin="miter" stroke-miterlimit="10" stroke-dasharray="" stroke-dashoffset="0" font-family="none" font-weight="none" font-size="none" text-anchor="none" style="mix-blend-mode: normal"><rect x="546" y="117.25" transform="scale(0.85714,0.85714)" width="700" height="700" id="Shape 1 1" vector-effect="non-scaling-stroke"/></g><g fill="none" fill-rule="none" stroke="none" stroke-width="1" stroke-linecap="butt" stroke-linejoin="miter" stroke-miterlimit="10" stroke-dasharray="" stroke-dashoffset="0" font-family="none" font-weight="none" font-size="none" text-anchor="none" style="mix-blend-mode: normal"><g><g id="stage"><g id="layer1 1"><g clip-path="url(#clip-1)" id="Group 1"><path d="M1061.88136,402.05453c0.60811,5.31744 -9.49644,12.60771 -23.00925,19.78485c-19.49493,10.34497 -47.05796,22.3375 -54.24216,24.9538c-22.98097,8.358 -50.08437,14.99773 -79.32324,20.08183v-128.22674c29.20351,5.19016 56.29984,11.89354 79.29495,20.18083c6.87308,2.47487 33.50272,14.25527 52.9623,24.50832c13.33603,7.02864 23.78,14.03607 24.3174,18.71712zM883.47832,470.33276c-32.32892,4.62448 -66.55289,7.50947 -100.21824,8.80348c-55.99579,2.15668 -110.60564,-0.05657 -152.55829,-5.80535l-41.77587,40.13538c-1.01116,0.96874 -2.36174,1.45664 -3.70524,1.45664l-129.9238,0.01414c-2.87085,0 -5.20431,-2.19203 -5.20431,-4.89318c0,-1.4425 0.66468,-2.72943 1.71827,-3.62746l64.55178,-63.23656c-0.02121,-0.19092 -0.03536,-0.38891 -0.03536,-0.5869l-0.02121,-80.82938l-64.49521,-63.17999c-1.05359,-0.89803 -1.71827,-2.18496 -1.71827,-3.62746c0,-2.70115 2.33345,-4.89318 5.20431,-4.89318h129.9238c1.3435,0.01414 2.69408,0.50205 3.70524,1.47078l42.51833,40.84956c39.98689,-6.22961 91.78953,-8.57721 145.38115,-6.70337c35.69475,1.24451 72.23096,4.36285 106.65292,9.43988z" id="CompoundPath 1" fill="#004cff" fill-rule="evenodd"/></g></g></g></g></g></svg>